<?xml version="1.0" encoding="UTF-8"?>
<svg width="17px" height="17px" viewBox="0 0 16 16" version="1.1" xmlns="http://www.w3.org/2000/svg" xmlns:xlink="http://www.w3.org/1999/xlink">
    <!-- Generator: Sketch 56.2 (81672) - https://sketch.com -->
    <title>icon/16px/add</title>
    <desc>Created with Sketch.</desc>
    <g id="icon/16px/add" stroke="none" stroke-width="1" fill="none" fill-rule="evenodd">
        <path d="M9,9 L9,13.8925781 L7,13.8925781 C7,13.8925781 7,13.4882853 7,12.6796875 C7,11.8710897 7,10.8710997 7,9.6796875 L7,9 L6.21289062,9 C5.02147842,9 4.02148842,9 3.21289062,9 C2.40429283,9 2,9 2,9 L2,7 L7,7 L7,6.10546875 C7,4.91405654 7,3.91406654 7,3.10546875 C7,2.29687096 7,1.89257812 7,1.89257812 L9,1.89257813 L9,7 L14,7 L14,9 C14,9 13.5957072,9 12.7871094,9 C11.9785116,9 10.9785216,9 9.78710938,9 L9,9 Z" id="Combined-Shape" fill="#EEF9F9"></path>
    </g>
</svg>